<svg xmlns="http://www.w3.org/2000/svg" width="20" height="20" viewBox="0 0 20 20">
  <g id="money" transform="translate(0 -0.56)">
    <path id="Контур_277" data-name="Контур 277" d="M43.773,369.56a2.779,2.779,0,1,0,2.773,2.779A2.779,2.779,0,0,0,43.773,369.56Z" transform="translate(-39.399 -354.558)" fill="#fff"/>
    <path id="Контур_278" data-name="Контур 278" d="M4.96,13.084v.587h5.156a3.954,3.954,0,0,1,3.748-3.909A3.936,3.936,0,0,1,20,9.023V5.507l-.632-.016a4.344,4.344,0,0,1-4.327-4.344V.56H4.96v.587A4.345,4.345,0,0,1,.625,5.492H0V8.74H.625A4.345,4.345,0,0,1,4.96,13.084Zm8.2-6.007a.586.586,0,1,1,.169.473A.588.588,0,0,1,13.164,7.077ZM8.415,8.788a.585.585,0,0,1,.811-.17,1.037,1.037,0,0,0,.768.2.557.557,0,0,0,.556-.473.392.392,0,0,0-.294-.469,4.89,4.89,0,0,1-1.338-.648,1.472,1.472,0,0,1,.494-2.461V4.682a.586.586,0,1,1,1.172,0V4.73a1.907,1.907,0,0,1,.66.357.586.586,0,0,1-.792.865.7.7,0,0,0-.624-.087.326.326,0,0,0-.208.258.23.23,0,0,0,.022.181,4.168,4.168,0,0,0,1.006.465,1.65,1.65,0,0,1-.064,3.119v.123a.586.586,0,1,1-1.172,0V9.954A2.118,2.118,0,0,1,8.585,9.6a.588.588,0,0,1-.169-.813ZM5.666,7.077a.586.586,0,1,1,.468.634A.586.586,0,0,1,5.666,7.077Z" transform="translate(0 0)" fill="#fff"/>
    <path id="Контур_279" data-name="Контур 279" d="M294.134,266.941a2.774,2.774,0,1,0-3.222,4.038A3.958,3.958,0,0,1,294.134,266.941Z" transform="translate(-277.67 -254.612)" fill="#fff"/>
    <path id="Контур_280" data-name="Контур 280" d="M374.538,332.254a2.779,2.779,0,0,0-1.052-2.177h0a2.77,2.77,0,0,0-4.449,2.667,2.772,2.772,0,0,0,5.5-.49Z" transform="translate(-354.582 -316.038)" fill="#fff"/>
    <path id="Контур_281" data-name="Контур 281" d="M415,1.147a3.17,3.17,0,0,0,3.163,3.17l.625.015V2.321A1.761,1.761,0,0,0,417.031.56H415Z" transform="translate(-398.793 0)" fill="#fff"/>
    <path id="Контур_282" data-name="Контур 282" d="M3.788,242.73a3.17,3.17,0,0,0-3.163-3.17H0v2a1.761,1.761,0,0,0,1.757,1.761H3.788Z" transform="translate(0 -229.646)" fill="#fff"/>
    <path id="Контур_283" data-name="Контур 283" d="M391.357,217.56a2.762,2.762,0,0,0-2.017.875,3.964,3.964,0,0,1,2.54,2.375,3.917,3.917,0,0,1,1.92.842A2.781,2.781,0,0,0,391.357,217.56Z" transform="translate(-374.135 -208.507)" fill="#fff"/>
    <path id="Контур_284" data-name="Контур 284" d="M.625,4.317a3.17,3.17,0,0,0,3.163-3.17V.56H1.757A1.761,1.761,0,0,0,0,2.321v2Z" transform="translate(0 0)" fill="#fff"/>
  </g>
</svg>
