<svg id="list" xmlns="http://www.w3.org/2000/svg" width="20" height="20" viewBox="0 0 20 20">
  <path id="Контур_274" data-name="Контур 274" d="M18.542,0H1.458A1.46,1.46,0,0,0,0,1.458V3.542A1.46,1.46,0,0,0,1.458,5H18.542A1.46,1.46,0,0,0,20,3.542V1.458A1.46,1.46,0,0,0,18.542,0Z" fill="#fff"/>
  <path id="Контур_275" data-name="Контур 275" d="M1.458,14H11.875a1.46,1.46,0,0,0,1.458-1.458V10.458A1.46,1.46,0,0,0,11.875,9H1.458A1.46,1.46,0,0,0,0,10.458v2.083A1.46,1.46,0,0,0,1.458,14Z" transform="translate(0 -1.5)" fill="#fff"/>
  <path id="Контур_276" data-name="Контур 276" d="M1.458,23H11.875a1.46,1.46,0,0,0,1.458-1.458V19.458A1.46,1.46,0,0,0,11.875,18H1.458A1.46,1.46,0,0,0,0,19.458v2.083A1.46,1.46,0,0,0,1.458,23Z" transform="translate(0 -3)" fill="#fff"/>
  <circle id="Эллипс_16" data-name="Эллипс 16" cx="2.5" cy="2.5" r="2.5" transform="translate(15 7.5)" fill="#fff"/>
  <circle id="Эллипс_17" data-name="Эллипс 17" cx="2.5" cy="2.5" r="2.5" transform="translate(15 15)" fill="#fff"/>
</svg>
