<svg xmlns="http://www.w3.org/2000/svg" width="20" height="18.158" viewBox="0 0 20 18.158">
  <g id="history" transform="translate(0 -23.58)">
    <path id="Контур_272" data-name="Контур 272" d="M10.949,23.58a9.079,9.079,0,0,0-9.086,8.475H.6a.6.6,0,0,0-.519.9L1.488,35.39l1.407,2.436a.6.6,0,0,0,1.037,0L5.339,35.39l1.407-2.436a.6.6,0,0,0-.519-.9h-1.5a6.223,6.223,0,1,1,3.676,6.293A1.43,1.43,0,0,0,7.239,40.96a9.08,9.08,0,1,0,3.71-17.38Z" transform="translate(0 0)" fill="#fff"/>
    <path id="Контур_273" data-name="Контур 273" d="M239.1,187.67h-.687a1.766,1.766,0,0,0-1.071-1.071v-.713a.586.586,0,0,0-1.172,0v.713a1.758,1.758,0,0,0,.586,3.415h.011a1.761,1.761,0,0,0,1.646-1.172h.687a.586.586,0,0,0,0-1.172Zm-2.333,1.171h-.011a.586.586,0,1,1,0-1.172h.011a.585.585,0,0,1,0,1.171Z" transform="translate(-225.82 -155.403)" fill="#fff"/>
  </g>
</svg>
