<svg xmlns="http://www.w3.org/2000/svg" width="20" height="19.996" viewBox="0 0 20 19.996">
  <g id="statistics" transform="translate(0 -0.05)">
    <g id="Сгруппировать_141" data-name="Сгруппировать 141" transform="translate(0 7.904)">
      <g id="Сгруппировать_140" data-name="Сгруппировать 140">
        <path id="Контур_285" data-name="Контур 285" d="M5,187.75H.715a.718.718,0,0,0-.715.715v10.711a.715.715,0,0,0,.715.715H5a.715.715,0,0,0,.715-.715V188.465A.715.715,0,0,0,5,187.75Z" transform="translate(0 -187.75)" fill="#fff"/>
      </g>
    </g>
    <g id="Сгруппировать_143" data-name="Сгруппировать 143" transform="translate(7.142 0.05)">
      <g id="Сгруппировать_142" data-name="Сгруппировать 142" transform="translate(0 0)">
        <path id="Контур_286" data-name="Контур 286" d="M175.7.05h-4.285a.714.714,0,0,0-.715.711V19.33a.715.715,0,0,0,.715.715H175.7a.715.715,0,0,0,.715-.715V.765A.715.715,0,0,0,175.7.05Z" transform="translate(-170.7 -0.05)" fill="#fff"/>
      </g>
    </g>
    <g id="Сгруппировать_145" data-name="Сгруппировать 145" transform="translate(14.285 5.761)">
      <g id="Сгруппировать_144" data-name="Сгруппировать 144">
        <path id="Контур_287" data-name="Контур 287" d="M346.4,136.55h-4.285a.713.713,0,0,0-.715.715v12.854a.715.715,0,0,0,.715.715H346.4a.715.715,0,0,0,.715-.715V137.265A.715.715,0,0,0,346.4,136.55Z" transform="translate(-341.4 -136.55)" fill="#fff"/>
      </g>
    </g>
  </g>
</svg>
